<?xml version="1.0" encoding="UTF-8"?>
<svg width="600px" height="218px" viewBox="0 0 600 218" version="1.1" xmlns="http://www.w3.org/2000/svg" xmlns:xlink="http://www.w3.org/1999/xlink">
    <title>orkes-logo-1-color</title>
    <g id="orkes-logo-1-color" stroke="none" stroke-width="1" fill="none" fill-rule="evenodd">
        <g id="Group-13" transform="translate(57.286115, 40.918654)" fill="#2C3042">
            <path d="M284.128764,38.7715154 C283.460426,38.7087735 282.792088,38.6760386 282.145574,38.6760386 C276.66793,38.6760386 272.060489,40.1109194 268.451464,42.9370344 C264.823344,45.7822447 262.141808,49.1102952 260.480511,52.825709 L259.962208,53.979615 L258.60098,45.0020624 C258.006296,41.1038787 254.713708,38.2723079 250.76915,38.2723079 C246.401766,38.2723079 242.850027,41.824047 242.850027,46.1914313 L242.850027,103.150197 C242.850027,108.393241 247.116478,112.656964 252.359522,112.656964 C257.599837,112.656964 261.866289,108.393241 261.866289,103.150197 L261.866289,75.1263752 C261.866289,67.6737244 263.538498,62.2233597 266.839269,58.9225884 C270.140041,55.6245449 274.332839,53.949608 279.300363,53.949608 C280.290595,53.949608 281.302649,54.0123499 282.30652,54.1351059 C286.376562,54.6452251 290.051058,52.0209755 290.88307,48.054594 C291.338631,45.8859053 290.844879,43.6190119 289.527299,41.8349586 C288.236997,40.0890961 286.270174,38.9706529 284.128764,38.7715154" id="Fill-1"></path>
            <path d="M307.448305,112.474194 C312.691349,112.474194 316.955072,108.210471 316.955072,102.967427 L316.955072,87.0964453 L323.221082,80.8331634 L341.781783,108.398696 C343.500367,110.95202 346.361945,112.474194 349.439027,112.474194 C352.94712,112.474194 356.007835,110.619215 357.628214,107.509398 C359.248593,104.39958 359.013992,100.826018 357.003522,97.9535281 L337.357113,69.8587805 L351.569525,54.3315154 C353.866426,51.821838 354.442015,48.3301129 353.072604,45.2202952 C351.703193,42.1077496 348.737954,40.1736613 345.33625,40.1736613 C342.864764,40.1736613 340.524217,41.2511858 338.917478,43.130716 L316.955072,68.7976234 L316.955072,14.2066837 C316.955072,8.96364025 312.691349,4.69991655 307.448305,4.69991655 C302.205262,4.69991655 297.941538,8.96364025 297.941538,14.2066837 L297.941538,102.967427 C297.941538,108.210471 302.205262,112.474194 307.448305,112.474194" id="Fill-3"></path>
            <path d="M408.334337,67.4107539 L380.905199,67.7190077 L380.951574,67.3043654 C381.456237,62.6505505 383.052065,58.8996739 385.69541,56.160852 C388.346938,53.4029348 391.759554,52.0035168 395.840508,52.0035168 C398.08285,52.0035168 400.006027,52.4208871 401.550024,53.244716 C403.091293,54.0685449 404.392506,55.1869881 405.418201,56.5700386 C406.443895,57.9585449 407.19407,59.5898352 407.649631,61.4175351 C408.105192,63.2343233 408.334337,65.127493 408.334337,67.042486 L408.334337,67.4107539 Z M396.587955,38.6776753 C391.273986,38.6776753 386.388299,39.599709 382.061833,41.4164972 C377.740823,43.2360133 373.979035,45.8002489 370.885585,49.0410063 C367.792135,52.2817637 365.377934,56.2426893 363.705725,60.811939 C362.033516,65.3839165 361.185136,70.5533065 361.185136,76.1755295 C361.185136,82.47973 362.232654,87.9682854 364.294954,92.4857048 C366.359982,97.005852 369.172457,100.789464 372.653271,103.732879 C376.144996,106.68175 380.27778,108.899541 384.945234,110.320782 C389.629056,111.750207 394.702969,112.473103 400.030578,112.473103 C405.56278,112.473103 410.41846,111.998447 414.466679,111.062773 C415.707878,110.776343 416.905431,110.465361 418.021146,110.143468 C421.602892,109.112318 423.676104,105.470558 422.743158,101.850621 C422.273958,100.042016 421.125508,98.5334818 419.507857,97.6059923 C417.909302,96.6921424 416.059778,96.4629979 414.292093,96.9649334 C413.841987,97.0931452 413.386426,97.2159011 412.922682,97.3386571 C409.867422,98.1406627 406.285676,98.5498492 402.275648,98.5498492 C395.935985,98.5498492 390.679302,97.1149684 386.644722,94.2888534 C382.566496,91.4381872 380.498741,87.0544355 380.498741,81.263082 L380.498741,80.2946739 L419.627885,80.2946739 C424.21623,80.2946739 427.948011,76.5601648 427.948011,71.9745477 L427.948011,71.8326964 C427.948011,61.4093513 425.089161,53.1874299 419.447843,47.3960764 C413.806525,41.6101788 406.113818,38.6776753 396.587955,38.6776753 L396.587955,38.6776753 Z" id="Fill-5"></path>
            <path d="M434.185105,60.3089123 C434.185105,65.6801676 435.565428,70.0311844 438.287882,73.2419348 C441.023976,76.4663247 445.399544,79.0987581 451.294558,81.0628534 L455.921094,82.4049853 C460.921353,83.8071311 464.377616,85.1056164 466.194404,86.2649783 C468.095757,87.4816262 469.061438,89.222033 469.061438,91.4425519 C469.061438,93.5594102 468.073934,95.299817 466.128934,96.6146697 C464.230309,97.8967875 461.21324,98.5487581 457.165021,98.5487581 C453.842426,98.5487581 450.533471,98.065918 447.330905,97.1111494 C446.68439,96.9201957 446.048787,96.7183303 445.41864,96.5055533 C444.635729,96.240946 443.836452,96.1127342 443.04263,96.1127342 C441.905091,96.1127342 440.781192,96.3800694 439.747314,96.9120119 C438.045098,97.7849432 436.798443,99.2716543 436.239222,101.102082 L436.184663,101.28758 C435.625442,103.109824 435.81094,105.038457 436.713878,106.718849 C437.608633,108.391058 439.098072,109.613162 440.91486,110.158744 C446.037875,111.694558 451.859236,112.47474 458.212539,112.47474 C467.364677,112.47474 474.716396,110.385161 480.0631,106.266016 C485.379797,102.165967 488.074972,96.576479 488.074972,89.644859 C488.074972,84.3799923 486.49824,80.0344313 483.388422,76.7282041 C480.251325,73.4001536 475.572959,70.8140947 469.484264,69.0464088 L464.988668,67.6988212 C460.280295,66.2966753 457.091367,64.968183 455.514635,63.7460792 C453.880617,62.4803289 453.051332,60.8217595 453.051332,58.8112896 C453.051332,56.7899081 453.992461,55.1722574 455.841985,54.0074397 C457.642405,52.8780849 460.201185,52.3024958 463.450126,52.3024958 C466.830007,52.3024958 470.327188,52.8371662 473.854376,53.8874116 C477.479769,54.9731199 481.312482,52.9217314 482.398191,49.3236178 C482.930133,47.5477482 482.736452,45.6764018 481.847153,44.0505673 C480.960582,42.4356445 479.50115,41.2680989 477.733464,40.7688913 C472.847777,39.380385 467.438331,38.6765842 461.655161,38.6765842 C453.004958,38.6765842 446.185182,40.7116052 441.386788,44.7270891 C436.607489,48.7262055 434.185105,53.9692489 434.185105,60.3089123" id="Fill-7"></path>
            <path d="M211.695382,86.3899165 C210.786988,89.2651339 209.556701,91.6493275 208.034527,93.4742994 C206.506897,95.310183 204.741939,96.6304916 202.796939,97.3997623 C200.865579,98.1608492 198.806006,98.5482125 196.672781,98.5482125 C194.534099,98.5482125 192.44452,98.0844677 190.455873,97.1678899 C188.472682,96.2513121 186.666806,94.8600778 185.090074,93.032378 C183.518797,91.207406 182.261231,88.8232125 181.352837,85.9398114 C180.44717,83.0727777 179.986154,79.6356108 179.986154,75.7237875 C179.986154,71.3182125 180.44717,67.6055266 181.350109,64.6893906 C182.261231,61.7568871 183.496974,59.3726935 185.019148,57.596824 C186.546778,55.8127707 188.309008,54.5170133 190.25128,53.7531985 C194.097633,52.2310245 198.571406,52.1764663 202.655088,53.9059614 C204.698292,54.7734369 206.506897,56.1428478 208.034527,57.9760035 C209.556701,59.8009755 210.786988,62.2124481 211.69811,65.1394958 C212.601048,68.0610877 213.062065,71.6237384 213.062065,75.7237875 C213.062065,79.9302251 212.601048,83.5174271 211.695382,86.3899165 M230.007844,90.7027426 C231.876462,86.073479 232.823047,80.784061 232.823047,74.9763401 C232.823047,69.0676865 231.901013,63.7782686 230.081497,59.2499376 C228.264709,54.7352461 225.727752,50.9270835 222.538825,47.931838 C219.349898,44.9365926 215.514457,42.6233247 211.141616,41.0493205 C206.757865,39.4753163 201.940375,38.6787665 196.822816,38.6787665 C191.705256,38.6787665 186.865943,39.5244187 182.435817,41.1966276 C178.013874,42.8715645 174.102051,45.3348675 170.812191,48.5265224 C167.519604,51.7181774 164.906266,55.7036543 163.040375,60.3711087 C161.171757,65.0440189 160.225172,70.4616487 160.225172,76.4739628 C160.225172,82.1889348 161.147205,87.3528689 162.966722,91.8266417 C164.78351,96.2976865 167.320466,100.105849 170.512121,103.147469 C173.703776,106.191817 177.53649,108.532364 181.906602,110.10364 C186.287626,111.674917 191.107844,112.474194 196.225403,112.474194 C201.337507,112.474194 206.17682,111.601263 210.609674,109.879952 C215.026161,108.164096 218.937984,105.673514 222.233299,102.476403 C225.523159,99.2874762 228.136497,95.3265505 230.007844,90.7027426" id="Fill-9"></path>
            <path d="M120.079062,100.666162 L100.547225,120.197999 C95.8061171,124.939107 89.5019165,127.549717 82.7994411,127.549717 C78.8166921,127.549717 75.7805281,126.559486 75.7805281,126.559486 L75.7805281,126.559486 C69.5690764,124.819079 61.7863485,121.668343 55.5667132,112.780811 L113.41205,54.9327468 C113.796685,54.5508394 114.167681,54.1580203 114.535949,53.7515617 C116.401839,51.7029011 117.866727,49.5233008 118.979715,47.2209446 L126.628775,76.627817 C128.846566,85.196183 126.336888,94.4083359 120.079062,100.666162 L120.079062,100.666162 Z M7.16267391,95.955061 C4.80575947,87.3103135 7.18176928,78.3654958 13.5187048,72.0285603 L32.9468815,52.6003836 L42.6909769,42.8590161 C32.2267132,69.7425715 39.2238029,98.2492335 48.8696935,114.002915 C50.5173513,116.695363 52.2795813,118.973168 54.1045533,120.945447 L24.7795182,113.350945 C16.1020358,111.105874 9.51686045,104.602536 7.16267391,95.955061 L7.16267391,95.955061 Z M52.2768534,107.196779 C46.2672672,95.2730835 39.1692447,71.2047314 47.7512504,47.0654537 C67.5831578,40.8540021 89.3409698,42.7990021 107.126945,52.34396 L52.2768534,107.196779 Z M89.2209418,6.39503997 C111.497057,6.39503997 119.776264,31.3608745 111.445227,47.5892125 C93.4137398,37.4413864 71.4322391,34.6207272 50.8747076,39.6810007 C53.6026178,34.2060849 71.923263,6.39503997 89.2209418,6.39503997 L89.2209418,6.39503997 Z M132.701103,75.0565407 L119.255234,23.3462742 L119.255234,23.3490021 C117.951292,18.1741564 115.318859,13.2666459 111.295191,9.20478752 C105.422001,3.33432468 86.8476599,-8.18291234 67.4713135,9.20205961 L9.08312272,67.5929783 C-7.8408324,84.5169334 0.03464446,113.424598 23.205514,119.426001 L74.9348759,132.822768 L74.9348759,132.822768 C77.5373022,133.496562 80.1779194,133.823911 82.7994411,133.823911 C91.0131788,133.823911 99.0250512,130.594065 104.982807,124.636309 L124.514644,105.101744 C132.373754,97.2453626 135.489027,85.8154187 132.701103,75.0565407 L132.701103,75.0565407 Z" id="Fill-11"></path>
        </g>
    </g>
</svg>